<svg xmlns="http://www.w3.org/2000/svg" xmlns:xlink="http://www.w3.org/1999/xlink" width="1080" viewBox="0 0 810 809.999993" height="1080" preserveAspectRatio="xMidYMid meet"><defs><clipPath id="1509c998d1"><path d="M 377 211 L 751 211 L 751 693.339844 L 377 693.339844 Z M 377 211 " clip-rule="nonzero"></path></clipPath></defs><g clip-path="url(#1509c998d1)"><path fill="#e4d98f" d="M 732.09375 349.710938 L 617.347656 340.585938 C 614.953125 271.519531 585.410156 244.050781 573.269531 235.632812 C 570.757812 233.378906 567.644531 231.730469 564.09375 231.011719 L 468.066406 211.570312 C 465.675781 211.085938 463.304688 211.082031 461.035156 211.453125 C 457.726562 211.710938 454.4375 212.777344 451.46875 214.730469 C 435.75 225.074219 423.125 238.644531 413.074219 252.890625 C 387.273438 289.460938 378.460938 330.488281 377.96875 332.863281 C 376.699219 338.976562 378.316406 345.332031 382.351562 350.097656 C 386.210938 354.660156 391.878906 357.277344 397.832031 357.277344 C 398.097656 357.277344 398.359375 357.273438 398.625 357.261719 L 527.609375 352.238281 C 538.804688 351.800781 547.527344 342.371094 547.09375 331.171875 C 546.65625 319.976562 537.132812 311.28125 526.027344 311.691406 L 425.664062 315.601562 C 430.988281 301.722656 439.28125 284.417969 451.3125 269.5 L 456.832031 271.898438 C 447.066406 283.664062 439.757812 297.246094 434.484375 309.421875 L 525.800781 305.863281 C 526.136719 305.847656 526.460938 305.84375 526.78125 305.84375 C 540.890625 305.84375 552.371094 316.871094 552.917969 330.945312 C 553.480469 345.339844 542.226562 357.503906 527.835938 358.066406 L 417.542969 362.363281 L 410.550781 396.886719 C 410.359375 397.839844 410.265625 398.785156 410.210938 399.726562 C 409.894531 401.519531 409.699219 403.355469 409.699219 405.238281 L 409.699219 661.925781 C 409.699219 679.25 423.742188 693.28125 441.050781 693.28125 C 458.367188 693.28125 472.410156 679.25 472.410156 661.925781 L 472.410156 429.40625 L 484.164062 431.785156 L 484.164062 661.925781 C 484.164062 679.25 498.207031 693.28125 515.515625 693.28125 C 532.832031 693.28125 546.875 679.25 546.875 661.925781 L 546.875 414.847656 L 569.992188 300.660156 C 574.492188 314.242188 577.695312 333 576.761719 358.585938 C 576.363281 369.445312 584.597656 378.6875 595.429688 379.550781 L 728.878906 390.160156 C 729.429688 390.203125 729.96875 390.222656 730.511719 390.222656 C 740.984375 390.222656 749.867188 382.164062 750.710938 371.542969 C 751.601562 360.371094 743.265625 350.597656 732.09375 349.710938 Z M 550.398438 297.449219 L 514.644531 289.808594 L 517.042969 278.582031 L 552.796875 286.222656 Z M 550.398438 297.449219 " fill-opacity="1" fill-rule="nonzero"></path></g><path fill="#e4d98f" d="M 518.945312 207.128906 C 548.796875 213.171875 577.910156 194.722656 585.476562 165.597656 L 554.847656 155.664062 C 554.785156 155.871094 554.746094 156.074219 554.679688 156.277344 C 551.34375 166.566406 540.886719 172.507812 530.351562 170.097656 C 529.753906 169.960938 529.160156 169.796875 528.5625 169.605469 C 517.691406 166.078125 511.714844 154.359375 515.238281 143.492188 C 515.304688 143.285156 515.390625 143.097656 515.460938 142.894531 L 509.613281 141 C 509.554688 141.203125 509.515625 141.410156 509.449219 141.613281 C 506.113281 151.898438 495.652344 157.839844 485.121094 155.429688 C 484.523438 155.292969 483.925781 155.128906 483.332031 154.9375 C 479.296875 153.628906 475.839844 151.167969 473.3125 147.871094 C 471.644531 175.800781 490.734375 201.417969 518.945312 207.128906 Z M 518.945312 207.128906 " fill-opacity="1" fill-rule="nonzero"></path><path fill="#e4d98f" d="M 494.335938 115.003906 C 494.933594 115.140625 495.527344 115.304688 496.121094 115.496094 C 504.777344 118.304688 510.3125 126.304688 510.4375 134.933594 L 518.335938 137.496094 C 523.105469 131.042969 531.304688 127.78125 539.566406 129.671875 C 540.164062 129.808594 540.757812 129.972656 541.351562 130.164062 C 546.621094 131.871094 550.90625 135.527344 553.425781 140.460938 C 554.894531 143.34375 555.636719 146.460938 555.675781 149.605469 L 586.699219 159.660156 C 591.199219 129.796875 571.523438 101.339844 541.589844 95.277344 C 520.292969 90.964844 499.363281 99.128906 486.375 114.738281 C 488.945312 114.324219 491.636719 114.386719 494.335938 115.003906 Z M 494.335938 115.003906 " fill-opacity="1" fill-rule="nonzero"></path><path fill="#e4d98f" d="M 312.359375 169.164062 C 312.359375 171.03125 312.269531 172.894531 312.085938 174.753906 C 311.902344 176.613281 311.628906 178.460938 311.261719 180.292969 C 310.898438 182.125 310.445312 183.9375 309.902344 185.726562 C 309.359375 187.515625 308.730469 189.269531 308.015625 190.996094 C 307.300781 192.722656 306.503906 194.410156 305.621094 196.058594 C 304.742188 197.707031 303.78125 199.308594 302.742188 200.863281 C 301.707031 202.417969 300.59375 203.914062 299.40625 205.359375 C 298.222656 206.804688 296.96875 208.1875 295.648438 209.507812 C 294.324219 210.832031 292.941406 212.085938 291.5 213.269531 C 290.054688 214.457031 288.554688 215.566406 287 216.605469 C 285.445312 217.644531 283.847656 218.601562 282.199219 219.484375 C 280.550781 220.367188 278.863281 221.164062 277.136719 221.878906 C 275.410156 222.59375 273.652344 223.222656 271.863281 223.765625 C 270.074219 224.308594 268.265625 224.761719 266.433594 225.125 C 264.597656 225.488281 262.753906 225.765625 260.894531 225.945312 C 259.03125 226.128906 257.167969 226.222656 255.300781 226.222656 C 253.429688 226.222656 251.566406 226.128906 249.707031 225.945312 C 247.847656 225.765625 246 225.488281 244.167969 225.125 C 242.335938 224.761719 240.523438 224.308594 238.738281 223.765625 C 236.949219 223.222656 235.191406 222.59375 233.464844 221.878906 C 231.738281 221.164062 230.050781 220.367188 228.402344 219.484375 C 226.753906 218.601562 225.152344 217.644531 223.597656 216.605469 C 222.046875 215.566406 220.546875 214.457031 219.101562 213.269531 C 217.65625 212.085938 216.273438 210.832031 214.953125 209.507812 C 213.632812 208.1875 212.378906 206.804688 211.191406 205.359375 C 210.007812 203.914062 208.894531 202.417969 207.855469 200.863281 C 206.820312 199.308594 205.859375 197.707031 204.976562 196.058594 C 204.097656 194.410156 203.300781 192.722656 202.582031 190.996094 C 201.867188 189.269531 201.238281 187.515625 200.699219 185.726562 C 200.15625 183.9375 199.703125 182.125 199.335938 180.292969 C 198.972656 178.460938 198.699219 176.613281 198.515625 174.753906 C 198.332031 172.894531 198.242188 171.03125 198.242188 169.164062 C 198.242188 167.292969 198.332031 165.429688 198.515625 163.570312 C 198.699219 161.710938 198.972656 159.863281 199.335938 158.03125 C 199.703125 156.199219 200.15625 154.386719 200.699219 152.597656 C 201.238281 150.808594 201.867188 149.054688 202.582031 147.328125 C 203.300781 145.601562 204.097656 143.914062 204.976562 142.265625 C 205.859375 140.617188 206.820312 139.015625 207.855469 137.460938 C 208.894531 135.90625 210.007812 134.410156 211.191406 132.964844 C 212.378906 131.519531 213.632812 130.136719 214.953125 128.816406 C 216.273438 127.492188 217.65625 126.238281 219.101562 125.054688 C 220.546875 123.867188 222.046875 122.757812 223.597656 121.71875 C 225.152344 120.679688 226.753906 119.722656 228.402344 118.839844 C 230.050781 117.960938 231.738281 117.160156 233.464844 116.445312 C 235.191406 115.730469 236.949219 115.101562 238.738281 114.558594 C 240.523438 114.015625 242.335938 113.5625 244.167969 113.199219 C 246 112.835938 247.847656 112.558594 249.707031 112.378906 C 251.566406 112.195312 253.429688 112.101562 255.300781 112.101562 C 257.167969 112.101562 259.03125 112.195312 260.894531 112.378906 C 262.753906 112.558594 264.597656 112.835938 266.433594 113.199219 C 268.265625 113.5625 270.074219 114.015625 271.863281 114.558594 C 273.652344 115.101562 275.410156 115.730469 277.136719 116.445312 C 278.863281 117.160156 280.550781 117.960938 282.199219 118.839844 C 283.847656 119.722656 285.445312 120.679688 287 121.71875 C 288.554688 122.757812 290.054688 123.867188 291.5 125.054688 C 292.941406 126.238281 294.324219 127.492188 295.648438 128.816406 C 296.96875 130.136719 298.222656 131.519531 299.40625 132.964844 C 300.59375 134.410156 301.707031 135.90625 302.742188 137.460938 C 303.78125 139.015625 304.742188 140.617188 305.621094 142.265625 C 306.503906 143.914062 307.300781 145.601562 308.015625 147.328125 C 308.730469 149.054688 309.359375 150.808594 309.902344 152.597656 C 310.445312 154.386719 310.898438 156.199219 311.261719 158.03125 C 311.628906 159.863281 311.902344 161.710938 312.085938 163.570312 C 312.269531 165.429688 312.359375 167.292969 312.359375 169.164062 Z M 312.359375 169.164062 " fill-opacity="1" fill-rule="nonzero"></path><path fill="#e4d98f" d="M 153.59375 551.886719 L 85.464844 641.554688 C 74.871094 655.496094 77.585938 675.382812 91.527344 685.976562 C 97.257812 690.332031 103.996094 692.4375 110.679688 692.4375 C 120.25 692.4375 129.710938 688.121094 135.945312 679.910156 L 211.011719 581.113281 C 215.496094 575.214844 217.769531 567.929688 217.4375 560.527344 L 215.949219 527.003906 L 149.339844 456.148438 Z M 153.59375 551.886719 " fill-opacity="1" fill-rule="nonzero"></path><path fill="#e4d98f" d="M 262.898438 667.089844 C 265.925781 682.144531 279.152344 692.542969 293.9375 692.542969 C 296.011719 692.542969 298.117188 692.339844 300.230469 691.914062 C 317.390625 688.460938 328.503906 671.746094 325.046875 654.582031 L 297.996094 520.175781 C 296.832031 514.378906 294.066406 509.023438 290.019531 504.71875 L 223.382812 433.832031 C 223.585938 430.046875 223.550781 425.710938 223.253906 420.6875 C 223.199219 420.261719 223.167969 419.820312 223.117188 419.390625 L 202.195312 409.429688 C 194.664062 405.84375 189.257812 398.800781 187.742188 390.59375 L 168.632812 287.167969 C 167.367188 280.304688 168.847656 273.359375 172.804688 267.613281 C 176.761719 261.867188 182.714844 258.003906 189.578125 256.734375 C 191.152344 256.445312 192.765625 256.296875 194.355469 256.296875 C 206.933594 256.296875 217.71875 265.289062 220.007812 277.675781 L 229.289062 327.914062 C 231.796875 314.457031 234.503906 301.8125 236.683594 290.683594 C 243.960938 265.449219 234.4375 235.242188 212.792969 229.839844 C 207.191406 228.445312 200.9375 228.210938 194.527344 229.25 C 193.496094 229.285156 192.460938 229.371094 191.417969 229.566406 C 187.085938 230.382812 85.105469 251.191406 60.269531 397.398438 C 58.390625 408.445312 65.824219 418.921875 76.871094 420.796875 C 78.019531 420.992188 79.164062 421.085938 80.292969 421.085938 C 90.003906 421.085938 98.589844 414.089844 100.269531 404.195312 C 107.050781 364.28125 120.308594 336.003906 134.96875 316.03125 C 128.449219 346.769531 128.011719 374.859375 132.585938 414.132812 C 134.992188 426.527344 139.257812 435.527344 144.664062 442.070312 C 145.570312 443.382812 146.546875 444.660156 147.671875 445.859375 L 237.628906 541.550781 Z M 262.898438 667.089844 " fill-opacity="1" fill-rule="nonzero"></path><path fill="#e4d98f" d="M 214.273438 278.734375 C 212.238281 267.71875 201.675781 260.429688 190.636719 262.472656 C 179.617188 264.503906 172.335938 275.089844 174.371094 286.105469 L 193.476562 389.53125 C 194.660156 395.929688 198.832031 401.371094 204.707031 404.164062 L 310.238281 454.417969 C 313.054688 455.757812 316.023438 456.394531 318.945312 456.394531 C 326.53125 456.394531 333.800781 452.125 337.277344 444.824219 C 342.09375 434.707031 337.800781 422.601562 327.683594 417.785156 L 231.496094 371.980469 Z M 214.273438 278.734375 " fill-opacity="1" fill-rule="nonzero"></path><path fill="#e4d98f" d="M 485.132812 149.390625 C 492.957031 151.925781 501.363281 147.640625 503.898438 139.8125 C 506.4375 131.988281 502.148438 123.582031 494.324219 121.046875 C 486.496094 118.507812 478.09375 122.796875 475.554688 130.621094 C 473.015625 138.449219 477.304688 146.851562 485.132812 149.390625 Z M 485.132812 149.390625 " fill-opacity="1" fill-rule="nonzero"></path><path fill="#e4d98f" d="M 520.785156 145.289062 C 518.246094 153.117188 522.535156 161.519531 530.363281 164.054688 C 538.1875 166.59375 546.59375 162.308594 549.132812 154.480469 C 551.667969 146.652344 547.378906 138.25 539.554688 135.710938 C 531.726562 133.175781 523.324219 137.460938 520.785156 145.289062 Z M 520.785156 145.289062 " fill-opacity="1" fill-rule="nonzero"></path></svg>